<svg width="50" height="50" viewBox="0 0 50 50" fill="none" xmlns="http://www.w3.org/2000/svg">
<path d="M35.4167 7.29178C35.4167 7.01551 35.3069 6.75056 35.1116 6.55521C34.9162 6.35986 34.6513 6.25011 34.375 6.25011H29.1667C26.544 6.11947 23.9762 7.03218 22.0244 8.78882C20.0726 10.5455 18.8954 13.0032 18.75 15.6251V21.2501H13.5417C13.2654 21.2501 13.0004 21.3599 12.8051 21.5552C12.6097 21.7506 12.5 22.0155 12.5 22.2918V27.7084C12.5 27.9847 12.6097 28.2497 12.8051 28.445C13.0004 28.6404 13.2654 28.7501 13.5417 28.7501H18.75V42.7084C18.75 42.9847 18.8597 43.2497 19.0551 43.445C19.2504 43.6404 19.5154 43.7501 19.7917 43.7501H26.0417C26.3179 43.7501 26.5829 43.6404 26.7782 43.445C26.9736 43.2497 27.0833 42.9847 27.0833 42.7084V28.7501H32.5417C32.7733 28.7534 32.9995 28.6794 33.1843 28.5398C33.3692 28.4002 33.5023 28.203 33.5625 27.9793L35.0625 22.5626C35.1039 22.4087 35.1095 22.2473 35.0788 22.0909C35.048 21.9345 34.9818 21.7873 34.8852 21.6605C34.7886 21.5337 34.6642 21.4308 34.5216 21.3596C34.379 21.2885 34.2219 21.251 34.0625 21.2501H27.0833V15.6251C27.1352 15.1094 27.3773 14.6316 27.7625 14.2849C28.1478 13.9382 28.6484 13.7475 29.1667 13.7501H34.375C34.6513 13.7501 34.9162 13.6404 35.1116 13.445C35.3069 13.2497 35.4167 12.9847 35.4167 12.7084V7.29178Z" fill="#55ACEE"/>
</svg>
