<svg width="35" height="35" viewBox="0 0 35 35" fill="none" xmlns="http://www.w3.org/2000/svg">
<path d="M1.03906 17.5C1.03906 24.6641 5.63281 30.7344 11.9766 32.9766V2.02344C5.63281 4.26562 1.03906 10.3359 1.03906 17.5Z" fill="#428BC1"/>
<path d="M33.8516 17.5C33.8516 10.3359 29.3125 4.26562 22.9141 2.02344V32.9766C29.3125 30.7344 33.8516 24.6641 33.8516 17.5Z" fill="#ED4C5C"/>
<path d="M11.9766 32.9766C13.6719 33.5781 15.5312 33.9062 17.4453 33.9062C19.3594 33.9062 21.2188 33.5781 22.9141 32.9766V2.02344C21.2188 1.42188 19.4141 1.09375 17.4453 1.09375C15.4766 1.09375 13.6719 1.42188 11.9766 2.02344V32.9766Z" fill="white"/>
</svg>
