<svg width="40" height="40" viewBox="0 0 40 40" fill="none" xmlns="http://www.w3.org/2000/svg">
<g clip-path="url(#clip0_27_3120)">
<path d="M0 20.0003C0 28.19 4.92469 35.2256 11.9717 38.3189C11.9155 36.9223 11.9617 35.2458 12.3198 33.7262C12.7044 32.1027 14.8933 22.8281 14.8933 22.8281C14.8933 22.8281 14.2544 21.5511 14.2544 19.6637C14.2544 16.6998 15.9722 14.4862 18.1116 14.4862C19.9308 14.4862 20.8097 15.8527 20.8097 17.4889C20.8097 19.3177 19.6433 22.0531 19.0434 24.5867C18.5423 26.7083 20.1072 28.4387 22.2002 28.4387C25.9895 28.4387 28.5417 23.5717 28.5417 17.8052C28.5417 13.4217 25.5894 10.1408 20.2195 10.1408C14.1527 10.1408 10.3731 14.6652 10.3731 19.7189C10.3731 21.4614 10.8869 22.6902 11.6916 23.6417C12.0616 24.0788 12.113 24.2545 11.9791 24.7564C11.8831 25.1244 11.6628 26.0103 11.5716 26.3614C11.4384 26.868 11.028 27.0491 10.5702 26.862C7.77578 25.7213 6.47438 22.6611 6.47438 19.2211C6.47438 13.5397 11.2659 6.72719 20.7684 6.72719C28.4044 6.72719 33.4302 12.2528 33.4302 18.1842C33.4302 26.03 29.0683 31.8914 22.6386 31.8914C20.4794 31.8914 18.4483 30.7242 17.7525 29.3984C17.7525 29.3984 16.5914 34.0066 16.3455 34.8964C15.9214 36.4384 15.0914 37.9797 14.3325 39.1809C16.1727 39.7251 18.0818 40.0013 20.0008 40.0011C31.0452 40.0011 40.0002 31.0466 40.0002 20.0003C40.0002 8.95453 31.0452 0 20.0008 0C8.95531 0 0 8.95453 0 20.0003Z" fill="#CB1F27"/>
</g>
<defs>
<clipPath id="clip0_27_3120">
<rect width="40" height="40" fill="white"/>
</clipPath>
</defs>
</svg>
