<svg width="30" height="30" viewBox="0 0 30 30" fill="none" xmlns="http://www.w3.org/2000/svg">
<path d="M29.9985 3.65316C28.8947 4.25273 27.7087 4.65795 26.4638 4.84024C27.7346 3.90723 28.7103 2.42976 29.1698 0.669382C27.9617 1.54754 26.64 2.16626 25.2618 2.49881C24.1391 1.03369 22.5398 0.118042 20.7696 0.118042C17.3708 0.118042 14.6152 3.49354 14.6152 7.6568C14.6152 8.24776 14.6697 8.82307 14.7746 9.37498C9.65982 9.06048 5.12511 6.05919 2.08966 1.49804C1.56002 2.61149 1.25654 3.90665 1.25654 5.28809C1.25654 7.90369 2.34311 10.2111 3.99436 11.5631C3.01705 11.5256 2.06124 11.2023 1.20674 10.6201C1.20639 10.6516 1.20639 10.6832 1.20639 10.7149C1.20639 14.3676 3.32774 17.4147 6.14301 18.1073C5.23676 18.4092 4.28616 18.4534 3.36383 18.2365C4.14692 21.2316 6.41978 23.4111 9.11272 23.4721C7.00648 25.494 4.3528 26.6993 1.46956 26.6993C0.972737 26.6993 0.482941 26.6636 0.00146484 26.594C2.72499 28.733 5.95987 29.9811 9.43531 29.9811C20.7553 29.9811 26.9454 18.4934 26.9454 8.5311C26.9454 8.20412 26.9395 7.879 26.9276 7.55575C28.1324 6.48879 29.1723 5.16725 29.9985 3.65316Z" fill="#55ACEE"/>
</svg>
