<svg width="38" height="27" viewBox="0 0 38 27" fill="none" xmlns="http://www.w3.org/2000/svg">
<g clip-path="url(#clip0_27_3111)">
<path d="M36.3161 4.07227C36.1031 3.28517 35.6876 2.56759 35.1111 1.99099C34.5345 1.4144 33.8169 0.998902 33.0298 0.78588C30.1483 0 18.551 0 18.551 0C18.551 0 6.95307 0.0237881 4.07151 0.809668C3.2844 1.0227 2.56683 1.43822 1.99026 2.01484C1.41368 2.59147 0.998229 3.30908 0.785264 4.09621C-0.08634 9.21618 -0.424451 17.0178 0.809197 21.933C1.02218 22.7201 1.43765 23.4377 2.01422 24.0143C2.59079 24.5909 3.30835 25.0064 4.09545 25.2194C6.97701 26.0053 18.5746 26.0053 18.5746 26.0053C18.5746 26.0053 30.1721 26.0053 33.0535 25.2194C33.8406 25.0064 34.5582 24.5909 35.1348 24.0143C35.7114 23.4377 36.1269 22.7201 36.3399 21.933C37.2592 16.8058 37.5425 9.00904 36.3161 4.07242V4.07227Z" fill="#FF0000"/>
<path d="M14.8596 18.5751L24.4806 13.0026L14.8598 7.43005L14.8596 18.5751Z" fill="white"/>
</g>
<defs>
<clipPath id="clip0_27_3111">
<rect width="37.14" height="26.109" fill="white"/>
</clipPath>
</defs>
</svg>
