<svg width="38" height="38" viewBox="0 0 38 38" fill="none" xmlns="http://www.w3.org/2000/svg">
<g clip-path="url(#clip0_22_576)">
<path d="M2.71429 36.6439C2.71429 37.0114 2.57999 37.3295 2.31138 37.5981C2.04278 37.8667 1.7247 38.001 1.35714 38.001C0.989583 38.001 0.671503 37.8667 0.402902 37.5981C0.134301 37.3295 0 37.0114 0 36.6439C0 36.2763 0.134301 35.9582 0.402902 35.6896C0.671503 35.421 0.989583 35.2867 1.35714 35.2867C1.7247 35.2867 2.04278 35.421 2.31138 35.6896C2.57999 35.9582 2.71429 36.2763 2.71429 36.6439ZM6.78571 32.5724C6.78571 32.94 6.65141 33.2581 6.38281 33.5267C6.11421 33.7953 5.79613 33.9296 5.42857 33.9296C5.06101 33.9296 4.74293 33.7953 4.47433 33.5267C4.20573 33.2581 4.07143 32.94 4.07143 32.5724C4.07143 32.2049 4.20573 31.8868 4.47433 31.6182C4.74293 31.3496 5.06101 31.2153 5.42857 31.2153C5.79613 31.2153 6.11421 31.3496 6.38281 31.6182C6.65141 31.8868 6.78571 32.2049 6.78571 32.5724ZM7.73995 24.8325L13.1685 30.2611L11.26 32.1695L5.83147 26.741L7.73995 24.8325ZM14.9286 24.4296C14.9286 24.7971 14.7943 25.1152 14.5257 25.3838C14.2571 25.6524 13.939 25.7867 13.5714 25.7867C13.2039 25.7867 12.8858 25.6524 12.6172 25.3838C12.3486 25.1152 12.2143 24.7971 12.2143 24.4296C12.2143 24.062 12.3486 23.7439 12.6172 23.4753C12.8858 23.2067 13.2039 23.0724 13.5714 23.0724C13.939 23.0724 14.2571 23.2067 14.5257 23.4753C14.7943 23.7439 14.9286 24.062 14.9286 24.4296ZM29.9208 17.6439C29.9208 18.4779 29.8395 19.2449 29.6769 19.9446C29.5143 20.6444 29.2493 21.3053 28.8817 21.9273C28.5141 22.5494 28.2031 23.0265 27.9487 23.3587C27.6942 23.6909 27.3196 24.1468 26.8248 24.7265C26.3865 25.2212 26.0649 25.6029 25.8599 25.8715C25.6549 26.1401 25.4182 26.4936 25.1496 26.9318C24.881 27.3701 24.6936 27.8224 24.5876 28.289C24.4816 28.7555 24.4286 29.2785 24.4286 29.8582C24.4286 32.1059 23.6334 34.025 22.043 35.6154C20.4526 37.2058 18.5335 38.001 16.2857 38.001C15.9182 38.001 15.6001 37.8667 15.3315 37.5981C15.0629 37.3295 14.9286 37.0114 14.9286 36.6439C14.9286 36.2763 15.0629 35.9582 15.3315 35.6896C15.6001 35.421 15.9182 35.2867 16.2857 35.2867C17.7842 35.2867 19.0636 34.7566 20.1239 33.6963C21.1842 32.6361 21.7143 31.3567 21.7143 29.8582C21.7143 29.0523 21.7956 28.3066 21.9581 27.621C22.1207 26.9353 22.3823 26.2921 22.7427 25.6913C23.1032 25.0905 23.4107 24.6204 23.6652 24.2811C23.9196 23.9419 24.2872 23.4965 24.7679 22.9452C25.3333 22.2949 25.7539 21.786 26.0296 21.4184C26.3052 21.0509 26.5703 20.5243 26.8248 19.8386C27.0792 19.153 27.2065 18.4214 27.2065 17.6439C27.2065 15.0285 26.277 12.7914 24.418 10.9324C22.559 9.07337 20.3218 8.14387 17.7065 8.14387C15.0911 8.14387 12.854 9.07337 10.995 10.9324C9.13597 12.7914 8.20647 15.0285 8.20647 17.6439C8.20647 18.0114 8.07217 18.3295 7.80357 18.5981C7.53497 18.8667 7.21689 19.001 6.84933 19.001C6.48177 19.001 6.16369 18.8667 5.89509 18.5981C5.62649 18.3295 5.49219 18.0114 5.49219 17.6439C5.49219 15.9899 5.8138 14.4101 6.45703 12.9045C7.10026 11.3989 7.96968 10.0983 9.06529 9.00268C10.1609 7.90707 11.4615 7.03765 12.9671 6.39442C14.4727 5.7512 16.0525 5.42958 17.7065 5.42958C19.3605 5.42958 20.9403 5.7512 22.4459 6.39442C23.9515 7.03765 25.252 7.90707 26.3477 9.00268C27.4433 10.0983 28.3127 11.3989 28.9559 12.9045C29.5991 14.4101 29.9208 15.9899 29.9208 17.6439ZM19 20.3582C19 20.7257 18.8657 21.0438 18.5971 21.3124C18.3285 21.581 18.0104 21.7153 17.6429 21.7153C17.2753 21.7153 16.9572 21.581 16.6886 21.3124C16.42 21.0438 16.2857 20.7257 16.2857 20.3582C16.2857 19.9906 16.42 19.6725 16.6886 19.4039C16.9572 19.1353 17.2753 19.001 17.6429 19.001C18.0104 19.001 18.3285 19.1353 18.5971 19.4039C18.8657 19.6725 19 19.9906 19 20.3582ZM25.1071 17.6439C25.1071 18.0114 24.9728 18.3295 24.7042 18.5981C24.4356 18.8667 24.1176 19.001 23.75 19.001C23.3824 19.001 23.0644 18.8667 22.7958 18.5981C22.5272 18.3295 22.3929 18.0114 22.3929 17.6439C22.3929 16.3291 21.9299 15.2088 21.0039 14.2828C20.0779 13.3569 18.9576 12.8939 17.6429 12.8939C16.3423 12.8939 15.2254 13.3569 14.2924 14.2828C13.3594 15.2088 12.8929 16.3291 12.8929 17.6439C12.8929 18.0114 12.7586 18.3295 12.49 18.5981C12.2214 18.8667 11.9033 19.001 11.5357 19.001C11.1682 19.001 10.8501 18.8667 10.5815 18.5981C10.3129 18.3295 10.1786 18.0114 10.1786 17.6439C10.1786 15.5799 10.9066 13.8198 12.3627 12.3637C13.8188 10.9076 15.5789 10.1796 17.6429 10.1796C19.7068 10.1796 21.4669 10.9076 22.923 12.3637C24.3791 13.8198 25.1071 15.5799 25.1071 17.6439ZM33.4621 11.5155C33.6034 11.8689 33.5964 12.2153 33.4408 12.5546C33.2853 12.8939 33.0309 13.1342 32.6775 13.2756C32.5502 13.3321 32.3876 13.3604 32.1897 13.3604C31.9211 13.3604 31.6702 13.2826 31.4369 13.1271C31.2037 12.9716 31.0376 12.7596 30.9386 12.491C29.9773 9.9746 28.394 7.8894 26.1886 6.23538C25.8917 6.00919 25.715 5.71232 25.6585 5.34476C25.6019 4.9772 25.6868 4.64498 25.9129 4.34811C26.1533 4.05123 26.4572 3.87452 26.8248 3.81797C27.1923 3.76143 27.5246 3.84625 27.8214 4.07244C30.4085 6.00919 32.2887 8.49022 33.4621 11.5155ZM37.9152 9.79788C38.0424 10.1513 38.0318 10.4977 37.8834 10.8369C37.7349 11.1762 37.484 11.4166 37.1306 11.5579C36.9751 11.6145 36.8125 11.6428 36.6429 11.6428C36.0208 11.6428 35.5967 11.3529 35.3705 10.7733C34.0699 7.40875 31.9706 4.63085 29.0725 2.43963C28.7615 2.21344 28.5813 1.91656 28.5318 1.549C28.4823 1.18144 28.5707 0.849224 28.7969 0.552349C29.0231 0.241337 29.3199 0.0610915 29.6875 0.0116123C30.0551 -0.0378668 30.3873 0.0504888 30.6842 0.276679C34.0063 2.75064 36.4167 5.92437 37.9152 9.79788Z" fill="#0049E3"/>
</g>
<defs>
<clipPath id="clip0_22_576">
<rect width="38" height="38" fill="white"/>
</clipPath>
</defs>
</svg>
