<svg width="42" height="42" viewBox="0 0 42 42" fill="none" xmlns="http://www.w3.org/2000/svg">
<path d="M5.25 26.25C5.25 30.9828 9.33188 35.8391 16.3328 36.6371C15.5793 35.707 14.9444 34.6868 14.4427 33.6C10.1902 32.3741 7.875 29.211 7.875 26.25V24.9375C7.875 24.5894 8.01328 24.2555 8.25942 24.0094C8.50556 23.7633 8.8394 23.625 9.1875 23.625H13.6684C13.9282 22.7088 14.2721 21.8321 14.7 21H9.1875C8.14321 21 7.14169 21.4148 6.40327 22.1532C5.66484 22.8917 5.25 23.8932 5.25 24.9375V26.25ZM25.5938 11.1562C25.5938 11.9043 25.4809 12.6262 25.2683 13.3087C24.0136 13.5082 22.791 13.8737 21.6326 14.3955C22.4129 13.6084 22.8823 12.5659 22.9543 11.46C23.0264 10.3541 22.6962 9.25939 22.0247 8.37777C21.3532 7.49614 20.3856 6.88701 19.3003 6.66266C18.2149 6.43831 17.0851 6.61388 16.1191 7.15699C15.153 7.7001 14.4159 8.57414 14.0436 9.61797C13.6712 10.6618 13.6888 11.805 14.0931 12.8369C14.4973 13.8688 15.261 14.7198 16.2433 15.2329C17.2256 15.7461 18.3602 15.8868 19.4381 15.6292C18.3883 16.3444 17.437 17.1943 16.6084 18.1571C15.2968 17.8267 14.1044 17.1346 13.167 16.1597C12.2295 15.1847 11.5847 13.9661 11.306 12.6426C11.0273 11.3191 11.1258 9.94395 11.5905 8.67373C12.0551 7.40352 12.8671 6.28932 13.934 5.45804C15.001 4.62676 16.2799 4.11182 17.6251 3.97187C18.9704 3.83192 20.3279 4.07258 21.5431 4.66645C22.7583 5.26031 23.7823 6.18351 24.4984 7.33088C25.2146 8.47826 25.5941 9.80369 25.5938 11.1562ZM27.5625 20.6718C27.1274 20.6718 26.7101 20.8447 26.4024 21.1524C26.0947 21.4601 25.9219 21.8774 25.9219 22.3125C25.9219 22.7476 26.0947 23.1649 26.4024 23.4726C26.7101 23.7802 27.1274 23.9531 27.5625 23.9531C27.9976 23.9531 28.4149 23.7802 28.7226 23.4726C29.0303 23.1649 29.2031 22.7476 29.2031 22.3125C29.2031 21.8774 29.0303 21.4601 28.7226 21.1524C28.4149 20.8447 27.9976 20.6718 27.5625 20.6718ZM27.5625 34.125C27.9106 34.125 28.2444 33.9867 28.4906 33.7406C28.7367 33.4944 28.875 33.1606 28.875 32.8125V27.5625C28.875 27.2144 28.7367 26.8805 28.4906 26.6344C28.2444 26.3883 27.9106 26.25 27.5625 26.25C27.2144 26.25 26.8806 26.3883 26.6344 26.6344C26.3883 26.8805 26.25 27.2144 26.25 27.5625V32.8125C26.25 33.1606 26.3883 33.4944 26.6344 33.7406C26.8806 33.9867 27.2144 34.125 27.5625 34.125ZM27.5625 15.75C26.0113 15.75 24.4752 16.0555 23.0421 16.6491C21.6089 17.2428 20.3067 18.1129 19.2098 19.2098C18.1129 20.3067 17.2428 21.6089 16.6492 23.042C16.0555 24.4752 15.75 26.0112 15.75 27.5625C15.75 29.1137 16.0555 30.6498 16.6492 32.0829C17.2428 33.5161 18.1129 34.8183 19.2098 35.9152C20.3067 37.0121 21.6089 37.8822 23.0421 38.4758C24.4752 39.0694 26.0113 39.375 27.5625 39.375C30.6954 39.375 33.6999 38.1304 35.9152 35.9152C38.1305 33.6999 39.375 30.6953 39.375 27.5625C39.375 24.4296 38.1305 21.425 35.9152 19.2098C33.6999 16.9945 30.6954 15.75 27.5625 15.75ZM27.5625 18.375C29.9992 18.375 32.3361 19.3429 34.059 21.0659C35.782 22.7889 36.75 25.1258 36.75 27.5625C36.75 29.9991 35.782 32.336 34.059 34.059C32.3361 35.782 29.9992 36.75 27.5625 36.75C25.1258 36.75 22.7889 35.782 21.066 34.059C19.343 32.336 18.375 29.9991 18.375 27.5625C18.375 25.1258 19.343 22.7889 21.066 21.0659C22.7889 19.3429 25.1258 18.375 27.5625 18.375Z" fill="#0034AA"/>
</svg>
