<svg width="46" height="46" viewBox="0 0 46 46" fill="none" xmlns="http://www.w3.org/2000/svg">
<path fill-rule="evenodd" clip-rule="evenodd" d="M22.9999 40.25C32.5267 40.25 40.2499 32.5268 40.2499 23C40.2499 13.4732 32.5267 5.75001 22.9999 5.75001C13.4731 5.75001 5.74992 13.4732 5.74992 23C5.74992 32.5268 13.4731 40.25 22.9999 40.25ZM22.9999 42.1667C33.5857 42.1667 42.1666 33.5858 42.1666 23C42.1666 12.4143 33.5857 3.83334 22.9999 3.83334C12.4142 3.83334 3.83325 12.4143 3.83325 23C3.83325 33.5858 12.4142 42.1667 22.9999 42.1667Z" fill="#0034AA"/>
<path d="M21.0833 33.5417C21.0833 34.05 21.2852 34.5375 21.6446 34.897C22.0041 35.2564 22.4916 35.4583 22.9999 35.4583C23.5083 35.4583 23.9958 35.2564 24.3552 34.897C24.7147 34.5375 24.9166 34.05 24.9166 33.5417V20.125C24.9166 19.6167 24.7147 19.1292 24.3552 18.7697C23.9958 18.4103 23.5083 18.2083 22.9999 18.2083C22.4916 18.2083 22.0041 18.4103 21.6446 18.7697C21.2852 19.1292 21.0833 19.6167 21.0833 20.125V33.5417Z" fill="#0034AA"/>
<path d="M22.9999 14.375C22.4916 14.375 22.0041 14.1731 21.6446 13.8136C21.2852 13.4542 21.0833 12.9667 21.0833 12.4584C21.0833 11.95 21.2852 11.4625 21.6446 11.1031C22.0041 10.7436 22.4916 10.5417 22.9999 10.5417C23.5083 10.5417 23.9958 10.7436 24.3552 11.1031C24.7147 11.4625 24.9166 11.95 24.9166 12.4584C24.9166 12.9667 24.7147 13.4542 24.3552 13.8136C23.9958 14.1731 23.5083 14.375 22.9999 14.375Z" fill="#0034AA"/>
</svg>
