<svg width="41" height="41" viewBox="0 0 41 41" fill="none" xmlns="http://www.w3.org/2000/svg">
<path d="M18.7916 23.9167H15.375C15.375 19.839 16.9948 15.9283 19.8782 13.0449C22.7616 10.1615 26.6723 8.54169 30.75 8.54169V11.9584C24.1387 11.9584 18.7916 17.3054 18.7916 23.9167ZM30.75 18.7917V15.375C26.035 15.375 22.2083 19.2017 22.2083 23.9167H25.625C25.625 21.0809 27.9141 18.7917 30.75 18.7917ZM11.9583 6.83335C11.9583 4.9371 10.4379 3.41669 8.54163 3.41669C6.64538 3.41669 5.12496 4.9371 5.12496 6.83335C5.12496 8.7296 6.64538 10.25 8.54163 10.25C10.4379 10.25 11.9583 8.7296 11.9583 6.83335ZM19.5604 7.68752H16.1437C15.9455 8.88088 15.3301 9.96514 14.4072 10.7472C13.4843 11.5293 12.3138 11.9585 11.1041 11.9584H5.97913C4.56121 11.9584 3.41663 13.1029 3.41663 14.5209V18.7917H13.6666V14.9309C15.2494 14.4317 16.6513 13.4796 17.6987 12.1922C18.7462 10.9049 19.3934 9.33877 19.5604 7.68752ZM32.4583 29.0417C34.3545 29.0417 35.875 27.5213 35.875 25.625C35.875 23.7288 34.3545 22.2084 32.4583 22.2084C30.562 22.2084 29.0416 23.7288 29.0416 25.625C29.0416 27.5213 30.562 29.0417 32.4583 29.0417ZM35.0208 30.75H29.8958C28.6861 30.7502 27.5156 30.321 26.5927 29.5389C25.6698 28.7568 25.0545 27.6725 24.8562 26.4792H21.4395C21.6065 28.1304 22.2537 29.6965 23.3012 30.9839C24.3487 32.2712 25.7505 33.2234 27.3333 33.7225V37.5834H37.5833V33.3125C37.5833 31.8946 36.4387 30.75 35.0208 30.75Z" fill="#0034AA"/>
</svg>
