<svg width="37" height="37" viewBox="0 0 37 37" fill="none" xmlns="http://www.w3.org/2000/svg">
<path d="M33.6597 4.58984H28.1967C28.0873 4.58984 27.9823 4.63331 27.905 4.71068C27.8276 4.78805 27.7841 4.89298 27.7841 5.00239C27.7841 5.07269 27.8063 5.13559 27.8369 5.19294V8.33609C27.837 8.45129 27.8144 8.56537 27.7704 8.67181C27.7263 8.77826 27.6617 8.87498 27.5803 8.95643C27.4988 9.03788 27.4021 9.10247 27.2957 9.14649C27.1892 9.19052 27.0752 9.21312 26.96 9.213H25.2598C25.1529 9.213 25.0471 9.19194 24.9483 9.15103C24.8496 9.11013 24.7598 9.05017 24.6842 8.97458C24.6086 8.89899 24.5487 8.80926 24.5078 8.7105C24.4669 8.61174 24.4458 8.50589 24.4458 8.39899V5.24382C24.5004 5.17499 24.5309 5.0902 24.5328 5.00239C24.5329 4.94818 24.5223 4.89448 24.5016 4.84437C24.4809 4.79427 24.4505 4.74874 24.4122 4.71041C24.3739 4.67207 24.3283 4.64169 24.2782 4.621C24.2281 4.60031 24.1744 4.58972 24.1202 4.58984H13.1081C12.9987 4.58984 12.8937 4.63331 12.8164 4.71068C12.739 4.78805 12.6955 4.89298 12.6955 5.00239C12.6955 5.06622 12.7131 5.12449 12.739 5.17907V8.35829C12.739 8.47066 12.7169 8.58192 12.6739 8.68573C12.6309 8.78954 12.5679 8.88386 12.4884 8.96331C12.409 9.04277 12.3146 9.10579 12.2108 9.14879C12.107 9.19179 11.9958 9.21392 11.8834 9.21392H10.3738C10.1447 9.21392 9.92491 9.1229 9.76288 8.96088C9.60086 8.79885 9.50984 8.5791 9.50984 8.34997V5.20219C9.54657 5.14191 9.56668 5.07297 9.56811 5.00239C9.56824 4.94818 9.55765 4.89448 9.53696 4.84437C9.51627 4.79427 9.48589 4.74874 9.44755 4.71041C9.40922 4.67207 9.36369 4.64169 9.31358 4.621C9.26348 4.60031 9.20977 4.58972 9.15556 4.58984H3.39929C3.15616 4.59009 2.92305 4.68672 2.75104 4.85855C2.57904 5.03038 2.48218 5.26339 2.48169 5.50652V32.8255C2.48169 33.3324 2.89331 33.744 3.39929 33.744H33.6597C33.903 33.7435 34.1362 33.6465 34.308 33.4743C34.4799 33.3021 34.5764 33.0688 34.5764 32.8255V5.50652C34.5759 5.26355 34.4792 5.03068 34.3074 4.85887C34.1356 4.68707 33.9027 4.59033 33.6597 4.58984ZM33.6597 32.9189H3.39929C3.38706 32.9189 3.37496 32.9165 3.36368 32.9118C3.35239 32.9071 3.34215 32.9002 3.33355 32.8915C3.32495 32.8828 3.31816 32.8725 3.31356 32.8612C3.30897 32.8498 3.30667 32.8377 3.30679 32.8255V12.2229H33.7513V32.8245C33.7516 32.8368 33.7494 32.8489 33.7449 32.8603C33.7404 32.8717 33.7337 32.882 33.7252 32.8908C33.7167 32.8996 33.7065 32.9066 33.6953 32.9114C33.684 32.9162 33.672 32.9188 33.6597 32.9189Z" fill="#0034AA"/>
<path d="M11.2359 8.27321C11.4635 8.27321 11.6485 8.08821 11.6485 7.86066V2.31251C11.6485 2.25834 11.6378 2.20469 11.6171 2.15464C11.5963 2.10458 11.5659 2.05911 11.5276 2.0208C11.4893 1.98249 11.4438 1.9521 11.3938 1.93137C11.3437 1.91063 11.2901 1.89996 11.2359 1.89996C11.1817 1.89996 11.1281 1.91063 11.078 1.93137C11.028 1.9521 10.9825 1.98249 10.9442 2.0208C10.9059 2.05911 10.8755 2.10458 10.8548 2.15464C10.834 2.20469 10.8234 2.25834 10.8234 2.31251V7.86159C10.8234 8.08914 11.0084 8.27321 11.2359 8.27321Z" fill="#0034AA"/>
<path d="M26.1783 8.27321C26.4058 8.27321 26.5908 8.08821 26.5908 7.86066V2.31251C26.5908 2.2031 26.5474 2.09816 26.47 2.0208C26.3926 1.94343 26.2877 1.89996 26.1783 1.89996C26.0689 1.89996 25.9639 1.94343 25.8866 2.0208C25.8092 2.09816 25.7657 2.2031 25.7657 2.31251V7.86159C25.7657 8.08914 25.9498 8.27321 26.1783 8.27321Z" fill="#0034AA"/>
<path d="M9.10373 18.4639C10.3594 18.4639 11.3774 17.446 11.3774 16.1903C11.3774 14.9346 10.3594 13.9166 9.10373 13.9166C7.84803 13.9166 6.83008 14.9346 6.83008 16.1903C6.83008 17.446 7.84803 18.4639 9.10373 18.4639Z" fill="#0034AA"/>
<path d="M15.6379 18.4639C16.8936 18.4639 17.9116 17.446 17.9116 16.1903C17.9116 14.9346 16.8936 13.9166 15.6379 13.9166C14.3822 13.9166 13.3643 14.9346 13.3643 16.1903C13.3643 17.446 14.3822 18.4639 15.6379 18.4639Z" fill="#0034AA"/>
<path d="M22.1712 18.4639C23.4269 18.4639 24.4449 17.446 24.4449 16.1903C24.4449 14.9346 23.4269 13.9166 22.1712 13.9166C20.9155 13.9166 19.8976 14.9346 19.8976 16.1903C19.8976 17.446 20.9155 18.4639 22.1712 18.4639Z" fill="#0034AA"/>
<path d="M9.10373 24.7956C10.3594 24.7956 11.3774 23.7776 11.3774 22.5219C11.3774 21.2662 10.3594 20.2483 9.10373 20.2483C7.84803 20.2483 6.83008 21.2662 6.83008 22.5219C6.83008 23.7776 7.84803 24.7956 9.10373 24.7956Z" fill="#0034AA"/>
<path d="M15.6379 24.7956C16.8936 24.7956 17.9116 23.7776 17.9116 22.5219C17.9116 21.2662 16.8936 20.2483 15.6379 20.2483C14.3822 20.2483 13.3643 21.2662 13.3643 22.5219C13.3643 23.7776 14.3822 24.7956 15.6379 24.7956Z" fill="#0034AA"/>
<path d="M22.1712 24.7956C23.4269 24.7956 24.4449 23.7776 24.4449 22.5219C24.4449 21.2662 23.4269 20.2483 22.1712 20.2483C20.9155 20.2483 19.8976 21.2662 19.8976 22.5219C19.8976 23.7776 20.9155 24.7956 22.1712 24.7956Z" fill="#0034AA"/>
<path d="M9.10373 31.1272C10.3594 31.1272 11.3774 30.1092 11.3774 28.8535C11.3774 27.5978 10.3594 26.5799 9.10373 26.5799C7.84803 26.5799 6.83008 27.5978 6.83008 28.8535C6.83008 30.1092 7.84803 31.1272 9.10373 31.1272Z" fill="#0034AA"/>
<path d="M15.6379 31.1272C16.8936 31.1272 17.9116 30.1092 17.9116 28.8535C17.9116 27.5978 16.8936 26.5799 15.6379 26.5799C14.3822 26.5799 13.3643 27.5978 13.3643 28.8535C13.3643 30.1092 14.3822 31.1272 15.6379 31.1272Z" fill="#0034AA"/>
<path d="M22.1712 31.1272C23.4269 31.1272 24.4449 30.1092 24.4449 28.8535C24.4449 27.5978 23.4269 26.5799 22.1712 26.5799C20.9155 26.5799 19.8976 27.5978 19.8976 28.8535C19.8976 30.1092 20.9155 31.1272 22.1712 31.1272Z" fill="#0034AA"/>
<path d="M28.5518 18.4639C29.8076 18.4639 30.8255 17.446 30.8255 16.1903C30.8255 14.9346 29.8076 13.9166 28.5518 13.9166C27.2961 13.9166 26.2782 14.9346 26.2782 16.1903C26.2782 17.446 27.2961 18.4639 28.5518 18.4639Z" fill="#0034AA"/>
<path d="M28.5518 24.7956C29.8076 24.7956 30.8255 23.7776 30.8255 22.5219C30.8255 21.2662 29.8076 20.2483 28.5518 20.2483C27.2961 20.2483 26.2782 21.2662 26.2782 22.5219C26.2782 23.7776 27.2961 24.7956 28.5518 24.7956Z" fill="#0034AA"/>
<path d="M28.5518 31.1272C29.8076 31.1272 30.8255 30.1092 30.8255 28.8535C30.8255 27.5978 29.8076 26.5799 28.5518 26.5799C27.2961 26.5799 26.2782 27.5978 26.2782 28.8535C26.2782 30.1092 27.2961 31.1272 28.5518 31.1272Z" fill="#0034AA"/>
</svg>
