<svg width="37" height="36" viewBox="0 0 37 36" fill="none" xmlns="http://www.w3.org/2000/svg">
<path d="M32.3718 6.60485H26.2307V5.00808C26.2307 3.70162 25.7851 2.60082 24.8941 1.70566C24.003 0.810496 22.9072 0.362915 21.6068 0.362915H15.3934C14.0929 0.362915 12.9971 0.810496 12.106 1.70566C11.215 2.60082 10.7694 3.70162 10.7694 5.00808V6.60485H4.62831C3.32783 6.60485 2.23206 7.04033 1.341 7.9113C0.449928 8.78227 0.00439453 9.89517 0.00439453 11.25V17.4194C0.00439453 18.4355 0.510135 18.9436 1.52162 18.9436V31.3548C1.52162 32.1774 1.83469 32.9032 2.46085 33.5323C3.087 34.1613 3.80949 34.4758 4.62831 34.4758H32.3718C33.1906 34.4758 33.9131 34.1613 34.5393 33.5323C35.1654 32.9032 35.4785 32.1774 35.4785 31.3548V18.9436C36.49 18.9436 36.9957 18.4355 36.9957 17.4194V11.25C36.9957 9.89517 36.5502 8.78227 35.6591 7.9113C34.7681 7.04033 33.6723 6.60485 32.3718 6.60485ZM13.8761 5.00808C13.8761 4.57259 14.0206 4.20969 14.3096 3.91937C14.5986 3.62904 14.9599 3.48388 15.3934 3.48388H21.6068C22.0402 3.48388 22.4015 3.62904 22.6905 3.91937C22.9795 4.20969 23.124 4.57259 23.124 5.00808V6.60485H13.8761V5.00808ZM4.62831 31.3548V18.9436H13.8761V23.5887C13.8761 24.4597 14.1772 25.1976 14.7793 25.8024C15.3813 26.4073 16.1159 26.7097 16.9828 26.7097H20.0173C20.8843 26.7097 21.6188 26.4073 22.2209 25.8024C22.8229 25.1976 23.124 24.4597 23.124 23.5887V18.9436H32.3718V31.3548H4.62831ZM16.9828 23.5887V18.9436H20.0173V23.5887H16.9828ZM33.889 15.8952H3.11109V11.25C3.11109 10.1855 3.61683 9.65324 4.62831 9.65324H32.3718C33.3833 9.65324 33.889 10.1855 33.889 11.25V15.8952Z" fill="#0034AA"/>
</svg>
