<svg width="39" height="39" viewBox="0 0 39 39" fill="none" xmlns="http://www.w3.org/2000/svg">
<g clip-path="url(#clip0_23_23)">
<path d="M19.5 0C15.6433 0 11.8731 1.14365 8.66639 3.28634C5.45963 5.42903 2.96027 8.47451 1.48436 12.0377C0.00844908 15.6008 -0.377716 19.5216 0.374696 23.3043C1.12711 27.0869 2.9843 30.5615 5.71143 33.2886C8.43855 36.0157 11.9131 37.8729 15.6957 38.6253C19.4784 39.3777 23.3992 38.9916 26.9623 37.5156C30.5255 36.0397 33.571 33.5404 35.7137 30.3336C37.8563 27.1269 39 23.3567 39 19.5C39 14.3283 36.9455 9.36838 33.2886 5.71142C29.6316 2.05446 24.6717 0 19.5 0V0ZM18.8305 2.23762C21.1572 2.14402 23.4788 2.52101 25.6564 3.34601C27.8339 4.17101 29.8225 5.42704 31.5031 7.03887C33.1836 8.65069 34.5215 10.5851 35.4367 12.7263C36.3519 14.8675 36.8254 17.1714 36.829 19.5C36.8324 21.7766 36.3865 24.0316 35.5169 26.1356C34.6472 28.2396 33.3709 30.1513 31.7611 31.7611C30.1513 33.3709 28.2396 34.6472 26.1356 35.5169C24.0316 36.3865 21.7766 36.8324 19.5 36.829C14.976 36.8184 10.6361 35.0364 7.41002 31.8647C4.18397 28.693 2.3284 24.3841 2.24085 19.8609C2.15331 15.3377 3.84075 10.9601 6.94166 7.66602C10.0426 4.37191 14.3103 2.42329 18.8305 2.23762ZM19.5 3.0875C19.4369 3.08895 19.3759 3.11032 19.3257 3.14856C19.2755 3.18679 19.2387 3.23994 19.2205 3.30037L17.7856 7.40512C17.7791 7.45746 17.7791 7.51041 17.7856 7.56275C17.7854 7.64302 17.805 7.72211 17.8427 7.79298C17.8804 7.86385 17.9351 7.92431 18.0018 7.969C18.191 8.10019 18.3476 8.27306 18.4595 8.47429C18.5714 8.67553 18.6357 8.89977 18.6473 9.12974C18.6589 9.35971 18.6176 9.58928 18.5265 9.80077C18.4355 10.0123 18.2971 10.2 18.122 10.3496C17.7023 10.7089 17.3658 11.1551 17.1357 11.6574C16.9056 12.1596 16.7875 12.7059 16.7895 13.2584V14.7257L9.53063 10.5592L8.64176 12.1079L16.7456 16.783V17.9075L15.7674 18.4714L7.67813 13.7914L6.78276 15.3416L13.9783 19.5L12.7075 20.2312C12.23 20.5099 11.8189 20.8891 11.5027 21.3426C11.1864 21.7961 10.9726 22.3129 10.8761 22.8572C10.8333 23.0843 10.7389 23.2985 10.6004 23.4834C10.4618 23.6682 10.2827 23.8189 10.0768 23.9237C9.87089 24.0286 9.64369 24.0848 9.41267 24.0881C9.18164 24.0914 8.95294 24.0417 8.74413 23.9427C8.67492 23.9056 8.59761 23.8862 8.51907 23.8862C8.44053 23.8862 8.36322 23.9056 8.29401 23.9427C8.24613 23.9699 8.20281 24.0045 8.16563 24.0451L5.33488 27.3552C5.29531 27.4033 5.27135 27.4622 5.2662 27.5242C5.26104 27.5862 5.27494 27.6483 5.30604 27.7022C5.33714 27.7561 5.38395 27.7992 5.44021 27.8258C5.49648 27.8524 5.55951 27.8611 5.62088 27.8509L9.89951 27.0497C9.95059 27.0374 9.99978 27.0183 10.0458 26.9929C10.1155 26.9536 10.1745 26.8978 10.2176 26.8304C10.2607 26.7629 10.2865 26.6859 10.2928 26.6061C10.3153 26.3788 10.3893 26.1596 10.5092 25.9651C10.629 25.7707 10.7916 25.606 10.9845 25.4837C11.1774 25.3614 11.3957 25.2846 11.6227 25.2592C11.8497 25.2338 12.0795 25.2604 12.2948 25.337C12.8142 25.5195 13.367 25.5873 13.9152 25.5357C14.4633 25.484 14.9938 25.3143 15.47 25.038L16.7375 24.3051V32.5991H18.5218V23.2456L19.4935 22.6866L20.4653 23.2456V32.5991H22.2528V24.2742L23.5203 25.0055C23.9965 25.2818 24.527 25.4515 25.0751 25.5032C25.6232 25.5548 26.1761 25.487 26.6955 25.3045C26.911 25.2273 27.1413 25.2002 27.3689 25.2255C27.5964 25.2507 27.8152 25.3275 28.0086 25.45C28.2019 25.5726 28.3648 25.7376 28.4847 25.9326C28.6047 26.1276 28.6786 26.3474 28.7008 26.5752C28.7043 26.6551 28.7285 26.7327 28.7709 26.8005C28.8133 26.8683 28.8726 26.9239 28.9429 26.962C28.9889 26.9874 29.038 27.0066 29.0891 27.0189L33.3694 27.8184C33.4319 27.8329 33.4973 27.827 33.5562 27.8015C33.615 27.7759 33.6641 27.7322 33.6961 27.6766C33.7282 27.621 33.7415 27.5567 33.7342 27.4929C33.7269 27.4292 33.6992 27.3696 33.6554 27.3227L33.6619 27.3552L30.8279 24.0451C30.7917 24.006 30.7508 23.9716 30.706 23.9427C30.6359 23.9057 30.5578 23.8864 30.4785 23.8864C30.3992 23.8864 30.3211 23.9057 30.251 23.9427C30.0296 24.0466 29.7864 24.0956 29.5421 24.0857C29.2977 24.0758 29.0593 24.0073 28.847 23.8859C28.663 23.7745 28.5049 23.6251 28.3833 23.4477C28.2617 23.2703 28.1793 23.069 28.1418 22.8572C28.039 22.3139 27.8203 21.7991 27.5006 21.3479C27.1809 20.8967 26.7678 20.5197 26.2893 20.2426L25.0185 19.5114L32.227 15.3546L31.3349 13.8027L23.2424 18.4714L22.2641 17.9075V16.783L30.3648 12.1079L29.4759 10.5592L22.2625 14.7257V13.2567C22.2677 12.7067 22.1538 12.1621 21.9285 11.6602C21.7033 11.1584 21.3721 10.7113 20.9576 10.3496C20.7818 10.2001 20.6429 10.0121 20.5518 9.8001C20.4606 9.58811 20.4196 9.35793 20.4321 9.12751C20.4445 8.89709 20.51 8.67265 20.6234 8.47169C20.7368 8.27074 20.8951 8.0987 21.086 7.969C21.1503 7.92253 21.2027 7.86149 21.2388 7.79087C21.275 7.72026 21.2939 7.64208 21.294 7.56275C21.3035 7.51064 21.3035 7.45724 21.294 7.40512L19.7925 3.29875C19.7734 3.23649 19.7345 3.18216 19.6817 3.14403C19.6289 3.1059 19.5651 3.08605 19.5 3.0875ZM19.5341 12.0445C19.7868 12.0521 20.0265 12.1578 20.2024 12.3393C20.3784 12.5207 20.4767 12.7635 20.4766 13.0162V15.7625L19.5065 16.3264L18.5348 15.7609V13.0162C18.5349 12.8864 18.5611 12.7579 18.6118 12.6384C18.6624 12.5188 18.7365 12.4107 18.8297 12.3202C18.9228 12.2298 19.0332 12.1589 19.1541 12.1119C19.2751 12.0648 19.4044 12.0424 19.5341 12.0461V12.0445ZM19.5065 18.2487L20.6229 18.8841V20.1532L19.5065 20.7886L18.3885 20.1549V18.8841L19.5065 18.2487ZM23.2424 20.5286L25.6149 21.905C25.726 21.9682 25.8235 22.0528 25.9019 22.1538C25.9802 22.2548 26.0379 22.3703 26.0716 22.4936C26.1052 22.6169 26.1142 22.7457 26.0981 22.8725C26.0819 22.9993 26.0408 23.1217 25.9773 23.2326V23.2391C25.8472 23.4624 25.6341 23.6252 25.3844 23.6918C25.1347 23.7585 24.8688 23.7237 24.6448 23.595L22.2641 22.2235V21.0925L23.2424 20.5286ZM15.7739 20.5351L16.7521 21.099V22.2235L14.3715 23.595C14.261 23.6588 14.1389 23.7002 14.0124 23.7169C13.8859 23.7335 13.7573 23.7251 13.634 23.692C13.5107 23.659 13.3951 23.602 13.2939 23.5243C13.1926 23.4466 13.1077 23.3497 13.0439 23.2391C12.9801 23.1286 12.9387 23.0066 12.922 22.88C12.9054 22.7535 12.9138 22.6249 12.9469 22.5016C12.9799 22.3783 13.0369 22.2628 13.1146 22.1615C13.1923 22.0603 13.2892 21.9753 13.3998 21.9115L15.7739 20.5351Z" fill="#0034AA"/>
</g>
<defs>
<clipPath id="clip0_23_23">
<rect width="39" height="39" fill="white"/>
</clipPath>
</defs>
</svg>
